# xmcd
#
# Track frame offsets:
#	150
#	20679
#	40051
#	58262
#	79327
#	96296
#	112729
#	134235
#	154713
#	172195
#	196439
#
# Disc length: 2823 seconds
#
# Revision: 1
# Processed by: cddbd v1.5PL3 Copyright (c) Steve Scherf et al.
# Submitted via: EasyCDDAExtractor 6.2.0.3
#
DISCID=9b0b050b
DTITLE=Aces and Eights - This Hand Is Live
DYEAR=1900
DGENRE=
TTITLE0=What You Got
TTITLE1=Steady Rocin' Woman
TTITLE2=The Work Song
TTITLE3=Bring It On Home
TTITLE4=Shake For Me
TTITLE5=That Cat Tom
TTITLE6=Honest I Do
TTITLE7=I'm A Gambler
TTITLE8=Mystery Train
TTITLE9=Mean Old World
TTITLE10=Summertime
EXTD=
EXTT0=
EXTT1=
EXTT2=
EXTT3=
EXTT4=
EXTT5=
EXTT6=
EXTT7=
EXTT8=
EXTT9=
EXTT10=
PLAYORDER=
